{"glyphs":{":":{"x_min":0,"x_max":219,"ha":219,"o":"m 42 273 q 42 301 61 320 q 81 339 108 339 q 135 339 155 320 q 174 300 174 273 q 174 246 155 226 q 136 207 108 207 q 81 207 61 226 q 42 246 42 273 z m 42 58 q 42 86 61 105 q 81 125 108 125 q 135 125 154 105 q 174 85 174 58 q 174 31 154 12 q 135 -8 108 -8 q 81 -8 61 11 q 42 31 42 58 z"},"$":{"x_min":0,"x_max":552,"ha":552,"o":"m 261 718 l 305 718 l 305 643 q 422 625 474 552 l 405 497 q 366 549 305 553 l 305 381 q 419 333 455 275 q 490 217 490 166 q 490 96 442 42 q 393 -11 305 -19 l 305 -114 l 261 -114 l 261 -19 q 185 -5 140 36 q 96 77 65 151 l 153 174 q 175 126 198 104 q 222 83 261 75 l 261 302 q 103 363 103 484 q 103 542 145 586 q 188 630 261 643 z m 261 401 l 261 551 q 228 544 209 526 q 191 507 191 483 q 191 431 261 401 z m 305 282 l 305 71 q 351 77 375 102 q 400 128 400 167 q 400 239 305 282 z"},"?":{"x_min":0,"x_max":385,"ha":385,"o":"m 248 290 l 331 290 q 318 218 276 181 q 233 144 178 144 q 122 144 86 177 q 50 210 50 262 q 50 293 64 319 q 78 345 100 362 q 123 378 175 403 q 228 427 247 450 q 267 473 267 495 q 267 522 245 543 q 223 563 192 563 q 115 563 104 467 l 24 467 q 33 557 77 600 q 122 643 186 643 q 255 643 302 601 q 349 560 349 499 q 349 456 324 415 q 299 374 201 327 q 161 308 145 294 q 128 280 128 263 q 128 247 142 236 q 156 226 179 226 q 229 226 248 290 z m 139 44 q 139 66 155 82 q 171 97 193 97 q 215 97 230 81 q 246 65 246 44 q 246 22 230 7 q 215 -9 193 -9 q 171 -9 155 7 q 139 22 139 44 z"},"<":{"x_min":0,"x_max":667,"ha":667,"o":"m 598 72 l 69 295 l 69 353 l 598 576 l 598 506 l 155 324 l 598 141 z"},"'":{"x_min":0,"x_max":191,"ha":191,"o":"m 68 462 l 45 596 l 45 716 l 146 716 l 146 596 l 122 462 z"},"=":{"x_min":0,"x_max":667,"ha":667,"o":"m 68 472 l 599 472 l 599 407 l 68 407 z m 68 243 l 599 243 l 599 179 l 68 179 z"},"a":{"x_min":0,"x_max":552,"ha":552,"o":"m 396 403 l 481 403 l 481 0 l 396 0 l 396 80 q 334 -11 242 -11 q 163 -11 106 51 q 50 114 50 203 q 50 288 107 351 q 164 414 240 414 q 288 414 330 388 q 373 362 396 321 z m 407 200 q 407 255 368 295 q 328 334 273 334 q 219 334 179 295 q 139 256 139 203 q 139 146 178 106 q 217 66 273 66 q 328 66 368 106 q 407 146 407 200 z"},"L":{"x_min":0,"x_max":385,"ha":385,"o":"m 77 622 l 161 622 l 161 84 l 364 84 l 364 0 l 77 0 z"},"3":{"x_min":0,"x_max":552,"ha":552,"o":"m 169 482 l 78 482 q 87 561 140 602 q 193 643 268 643 q 354 643 411 594 q 468 544 468 470 q 468 378 374 329 q 484 272 484 173 q 484 95 424 37 q 364 -20 282 -20 q 200 -20 139 21 q 79 62 60 152 l 153 152 q 183 55 277 55 q 325 55 360 88 q 396 121 396 165 q 396 211 363 249 q 331 288 256 289 l 256 366 q 313 367 345 394 q 378 421 378 464 q 378 507 348 538 q 317 568 274 568 q 233 568 208 547 q 184 527 169 482 z"},";":{"x_min":0,"x_max":271,"ha":271,"o":"m 92 275 q 92 302 111 322 q 131 341 158 341 q 186 341 205 322 q 224 302 224 275 q 224 247 205 228 q 186 208 158 208 q 130 208 111 228 q 92 247 92 275 z m 124 125 l 229 83 l 110 -167 l 35 -135 z"},"J":{"x_min":0,"x_max":385,"ha":385,"o":"m 210 621 l 295 621 l 295 165 q 295 -21 140 -21 q 86 -21 34 7 l 76 76 q 117 62 143 62 q 210 62 210 152 z"},"V":{"x_min":0,"x_max":604,"ha":604,"o":"m 13 621 l 103 621 l 298 181 l 494 621 l 585 621 l 297 -21 z"},"\"":{"x_min":0,"x_max":355,"ha":355,"o":"m 71 462 l 46 599 l 46 716 l 147 716 l 147 599 l 124 462 z m 232 462 l 209 599 l 209 716 l 309 716 l 309 599 l 285 462 z"},"7":{"x_min":0,"x_max":552,"ha":552,"o":"m 26 624 l 539 624 l 101 -30 l 36 13 l 388 542 l 26 542 z"},"S":{"x_min":0,"x_max":500,"ha":500,"o":"m 445 553 l 376 498 q 349 526 326 540 q 304 554 262 554 q 216 554 188 533 q 159 513 159 480 q 159 452 184 430 q 209 408 269 383 q 329 357 363 335 q 396 312 417 286 q 439 259 449 229 q 460 199 460 166 q 460 88 404 34 q 347 -21 267 -21 q 189 -21 129 22 q 69 64 37 150 l 122 174 q 168 69 264 69 q 311 69 341 97 q 372 125 372 167 q 372 192 356 218 q 340 244 316 260 q 292 277 240 298 q 187 319 159 337 q 131 355 110 380 q 90 404 80 429 q 71 453 71 481 q 71 548 125 595 q 178 642 255 642 q 306 642 358 620 q 410 598 445 553 z"},"}":{"x_min":0,"x_max":334,"ha":334,"o":"m 306 277 l 306 197 q 273 197 248 179 q 222 161 213 126 q 205 91 205 -17 q 204 -125 191 -154 q 179 -182 154 -207 q 128 -232 50 -232 l 23 -232 l 23 -156 l 38 -156 q 91 -156 107 -137 q 122 -118 122 -55 l 122 16 q 122 119 146 167 q 169 215 224 237 q 160 266 141 316 q 122 366 122 457 l 122 529 q 122 592 107 611 q 91 630 38 630 l 23 630 l 23 706 l 50 706 q 129 706 155 680 q 181 654 192 626 q 204 599 205 490 q 205 382 214 347 q 222 312 248 295 q 274 277 306 277 z"},"Z":{"x_min":0,"x_max":500,"ha":500,"o":"m 47 622 l 467 622 l 170 84 l 461 84 l 461 0 l 32 0 l 327 537 l 47 537 z"},"x":{"x_min":0,"x_max":500,"ha":500,"o":"m 57 403 l 160 403 l 250 288 l 338 403 l 440 403 l 300 221 l 469 0 l 368 0 l 249 154 l 129 0 l 29 0 l 199 221 z"},")":{"x_min":0,"x_max":271,"ha":271,"o":"m 43 611 l 110 642 q 214 465 214 222 q 214 7 115 -193 l 48 -157 q 109 -18 124 57 q 138 132 138 230 q 138 340 118 426 q 98 512 43 611 z"},"&":{"x_min":0,"x_max":667,"ha":667,"o":"m 324 337 l 454 199 l 524 276 l 584 222 l 510 139 l 641 1 l 530 1 l 456 79 q 351 -22 251 -22 q 165 -22 103 31 q 40 85 40 158 q 40 213 68 248 q 96 284 196 352 q 187 366 180 374 q 137 429 129 454 q 121 480 121 500 q 121 554 165 599 q 208 644 281 644 q 344 644 389 601 q 433 558 433 497 q 433 409 324 337 z m 267 396 q 310 425 332 448 q 353 471 353 497 q 353 527 333 545 q 312 563 278 563 q 246 563 225 545 q 204 528 204 501 q 204 462 267 396 z m 400 139 l 254 294 q 171 240 149 213 q 127 187 127 159 q 127 118 163 89 q 200 59 251 59 q 290 59 323 78 q 356 98 400 139 z"},"_":{"x_min":0,"x_max":500,"ha":500,"o":"m -7 -124 l -7 -74 l 507 -74 l 507 -124 z"},"v":{"x_min":0,"x_max":438,"ha":438,"o":"m 15 403 l 104 403 l 219 170 l 331 403 l 421 403 l 218 -15 z"},"O":{"x_min":0,"x_max":771,"ha":771,"o":"m 39 315 q 39 450 141 546 q 242 642 385 642 q 524 642 625 545 q 725 448 725 315 q 725 174 626 76 q 526 -21 382 -21 q 239 -21 139 77 q 39 175 39 315 z m 635 311 q 635 414 561 485 q 486 555 378 555 q 275 555 201 483 q 128 412 128 311 q 128 209 203 138 q 279 68 388 68 q 489 68 562 140 q 635 212 635 311 z"},"(":{"x_min":0,"x_max":271,"ha":271,"o":"m 153 642 l 221 611 q 167 507 148 426 q 128 346 128 243 q 128 125 147 39 q 166 -47 217 -154 l 153 -190 q 53 2 53 221 q 53 336 74 433 q 95 530 153 642 z"},"C":{"x_min":0,"x_max":604,"ha":604,"o":"m 568 601 l 568 505 q 467 554 383 554 q 274 554 200 484 q 126 414 126 312 q 126 208 202 138 q 278 69 392 69 q 475 69 568 121 l 568 24 q 483 -21 385 -21 q 240 -21 138 77 q 35 175 35 313 q 35 449 136 545 q 237 642 379 642 q 470 642 568 601 z"},"W":{"x_min":0,"x_max":1000,"ha":1000,"o":"m 499 646 l 699 187 l 887 621 l 975 621 l 699 -19 l 499 441 l 299 -19 l 23 621 l 111 621 l 300 183 z"},"A":{"x_min":0,"x_max":604,"ha":604,"o":"m 297 646 l 591 0 l 502 0 l 429 159 l 165 159 l 94 0 l 6 0 z m 297 451 l 197 230 l 397 230 z"},"f":{"x_min":0,"x_max":333,"ha":333,"o":"m 300 628 l 300 542 q 263 567 236 567 q 213 567 201 550 q 188 534 188 504 l 188 403 l 300 403 l 300 325 l 188 325 l 188 0 l 103 0 l 103 325 l 29 325 l 29 403 l 103 403 l 103 498 q 103 567 138 608 q 174 649 233 649 q 262 649 300 628 z"},"Q":{"x_min":0,"x_max":771,"ha":771,"o":"m 617 68 l 715 -38 l 604 -38 l 549 20 q 460 -21 381 -21 q 238 -21 138 77 q 38 175 38 315 q 38 450 139 546 q 240 642 383 642 q 523 642 624 546 q 725 451 725 318 q 725 167 617 68 z m 486 89 l 349 235 l 460 235 l 556 133 q 635 208 635 312 q 635 415 561 485 q 487 555 378 555 q 274 555 201 484 q 128 413 128 311 q 128 209 203 139 q 277 68 385 68 q 430 68 486 89 z"},"w":{"x_min":0,"x_max":667,"ha":667,"o":"m 332 420 l 445 153 l 564 403 l 638 403 l 440 -11 l 332 245 l 224 -8 l 27 403 l 101 403 l 220 156 z"},"-":{"x_min":0,"x_max":333,"ha":333,"o":"m 53 243 l 280 243 l 280 160 l 53 160 z"},"E":{"x_min":0,"x_max":438,"ha":438,"o":"m 58 622 l 403 622 l 403 537 l 142 537 l 142 382 l 403 382 l 403 298 l 142 298 l 142 84 l 403 84 l 403 0 l 58 0 z"},"s":{"x_min":0,"x_max":333,"ha":333,"o":"m 300 355 l 243 305 q 221 321 205 329 q 189 337 167 337 q 115 337 115 299 q 115 271 181 246 q 247 220 275 189 q 304 159 304 115 q 304 64 263 27 q 221 -11 165 -11 q 80 -11 25 68 l 92 100 q 127 66 165 66 q 191 66 211 80 q 231 95 231 114 q 231 147 162 174 q 92 201 66 229 q 39 256 39 297 q 39 347 77 381 q 115 414 172 414 q 229 414 300 355 z"},">":{"x_min":0,"x_max":667,"ha":667,"o":"m 68 576 l 598 352 l 598 295 l 68 72 l 68 141 l 512 323 l 68 506 z"},"l":{"x_min":0,"x_max":219,"ha":219,"o":"m 69 634 l 154 634 l 154 0 l 69 0 z"},"8":{"x_min":0,"x_max":552,"ha":552,"o":"m 395 322 q 443 294 467 253 q 490 211 490 167 q 490 90 428 35 q 365 -20 276 -20 q 186 -20 123 34 q 61 89 61 167 q 61 261 152 322 q 113 355 96 388 q 78 421 78 465 q 78 537 136 590 q 195 643 274 643 q 353 643 412 590 q 470 538 470 467 q 470 384 395 322 z m 381 463 q 381 507 350 538 q 318 569 274 569 q 230 569 198 538 q 167 507 167 463 q 167 419 198 388 q 230 357 274 357 q 318 357 350 388 q 381 419 381 463 z m 401 169 q 401 216 363 250 q 325 283 272 283 q 220 283 185 250 q 150 216 150 167 q 150 119 187 86 q 224 54 279 54 q 330 54 365 87 q 401 121 401 169 z"},"\\":{"x_min":0,"x_max":500,"ha":500,"o":"m 33 724 l 88 724 l 494 -220 l 439 -220 z"},"e":{"x_min":0,"x_max":500,"ha":500,"o":"m 459 185 l 115 185 q 126 123 166 94 q 206 66 253 66 q 325 66 374 126 l 436 79 q 366 -11 249 -11 q 159 -11 99 50 q 38 112 38 203 q 38 289 99 351 q 161 414 249 414 q 336 414 398 350 q 460 287 459 185 z m 124 253 l 370 253 q 329 336 249 336 q 162 336 124 253 z"},"b":{"x_min":0,"x_max":552,"ha":552,"o":"m 70 634 l 154 634 l 154 323 q 208 414 309 414 q 387 414 445 352 q 502 289 502 203 q 502 117 446 53 q 389 -11 314 -11 q 266 -11 222 15 q 179 41 154 85 l 154 0 l 70 0 z m 412 203 q 412 258 373 298 q 333 337 277 337 q 223 337 183 297 q 143 257 143 203 q 143 146 183 108 q 223 69 281 69 q 334 69 373 108 q 412 148 412 203 z"},"%":{"x_min":0,"x_max":833,"ha":833,"o":"m 29 464 q 29 546 67 594 q 105 642 169 642 q 234 642 271 594 q 308 547 308 463 q 308 382 271 336 q 233 289 169 289 q 104 289 67 336 q 29 383 29 464 z m 240 469 q 240 577 171 577 q 95 577 95 463 q 95 410 114 382 q 133 353 168 353 q 206 353 223 381 q 240 409 240 469 z m 606 642 l 670 642 l 234 -44 l 169 -44 z m 528 121 q 528 211 564 260 q 601 308 668 308 q 729 308 766 261 q 803 214 803 136 q 803 50 767 3 q 731 -44 665 -44 q 603 -44 565 1 q 528 45 528 121 z m 737 130 q 737 244 667 244 q 593 244 593 139 q 593 76 610 47 q 626 19 665 19 q 737 19 737 130 z"},"m":{"x_min":0,"x_max":667,"ha":667,"o":"m 49 0 l 49 403 l 133 403 l 133 341 q 163 379 190 396 q 217 414 252 414 q 298 414 324 394 q 350 374 368 330 q 400 374 429 394 q 459 414 498 414 q 546 414 581 378 q 615 342 615 293 l 615 0 l 531 0 l 531 271 q 531 338 465 338 q 427 338 401 304 q 375 270 375 219 l 375 0 l 290 0 l 290 260 q 290 339 225 339 q 187 339 160 307 q 133 274 133 227 l 133 0 z"},"#":{"x_min":0,"x_max":668,"ha":668,"o":"m 44 475 l 203 475 l 245 672 l 304 672 l 262 475 l 468 475 l 509 672 l 569 672 l 527 475 l 624 475 l 624 415 l 515 415 l 478 234 l 624 234 l 624 174 l 466 174 l 425 -22 l 365 -22 l 407 174 l 200 174 l 159 -22 l 99 -22 l 140 174 l 44 174 l 44 234 l 153 234 l 191 415 l 44 415 z m 250 415 l 212 235 l 419 235 l 456 415 z"},",":{"x_min":0,"x_max":219,"ha":219,"o":"m 99 123 l 204 82 l 89 -168 l 13 -138 z"},"n":{"x_min":0,"x_max":438,"ha":438,"o":"m 41 0 l 41 403 l 124 403 l 124 336 q 161 376 190 395 q 220 414 257 414 q 312 414 350 378 q 389 342 389 291 l 389 0 l 304 0 l 304 266 q 304 299 283 320 q 262 342 229 342 q 187 342 156 306 q 125 270 125 219 l 125 0 z"},"h":{"x_min":0,"x_max":438,"ha":438,"o":"m 38 634 l 123 634 l 123 337 q 158 377 189 396 q 219 414 263 414 q 314 414 352 375 q 389 335 389 281 l 389 0 l 304 0 l 304 257 q 304 295 285 318 q 266 341 234 341 q 188 341 156 306 q 123 271 123 222 l 123 0 l 38 0 z"},"z":{"x_min":0,"x_max":438,"ha":438,"o":"m 25 403 l 406 403 l 163 74 l 404 74 l 404 0 l 20 0 l 265 329 l 25 329 z"},"B":{"x_min":0,"x_max":500,"ha":500,"o":"m 77 622 l 176 622 q 273 622 334 580 q 396 538 396 473 q 396 395 305 342 q 446 295 446 179 q 446 99 373 49 q 301 0 179 0 l 77 0 z m 161 547 l 161 363 q 231 364 269 390 q 306 416 306 461 q 306 500 272 524 q 239 548 182 548 q 170 548 161 547 z m 161 289 l 161 76 l 168 76 q 278 76 318 111 q 358 146 358 183 q 358 231 313 260 q 268 289 190 289 z"},"K":{"x_min":0,"x_max":552,"ha":552,"o":"m 65 622 l 150 622 l 150 369 l 413 622 l 532 622 l 232 333 l 534 0 l 426 0 l 150 303 l 150 0 l 65 0 z"},"R":{"x_min":0,"x_max":500,"ha":500,"o":"m 78 622 l 213 622 q 313 622 377 572 q 440 522 440 444 q 440 381 399 333 q 358 286 271 266 l 452 0 l 355 0 l 182 256 l 163 256 l 163 0 l 78 0 z m 163 547 l 163 330 q 351 326 351 439 q 351 479 329 504 q 307 529 271 538 q 234 547 163 547 z"},"T":{"x_min":0,"x_max":438,"ha":438,"o":"m 27 622 l 407 622 l 407 537 l 259 537 l 259 0 l 175 0 l 175 537 l 27 537 z"},"P":{"x_min":0,"x_max":500,"ha":500,"o":"m 85 622 l 210 622 q 316 622 381 572 q 446 522 446 443 q 446 363 377 309 q 309 254 169 256 l 169 0 l 85 0 z m 169 548 l 169 330 q 265 331 311 357 q 357 383 357 441 q 357 484 322 516 q 287 548 169 548 z"},"|":{"x_min":0,"x_max":527,"ha":527,"o":"m 231 696 l 296 696 l 296 -135 l 231 -135 z"},"t":{"x_min":0,"x_max":271,"ha":271,"o":"m 84 520 l 169 520 l 169 403 l 253 403 l 253 325 l 169 325 l 169 0 l 84 0 l 84 325 l 17 325 l 17 404 l 84 404 z"},"M":{"x_min":0,"x_max":771,"ha":771,"o":"m 578 648 l 748 0 l 665 0 l 562 396 l 385 -24 l 207 399 l 103 0 l 20 0 l 190 648 l 385 184 z"},"g":{"x_min":0,"x_max":552,"ha":552,"o":"m 392 403 l 475 403 l 475 16 q 475 -69 416 -129 q 357 -189 274 -189 q 210 -189 157 -155 q 104 -120 79 -50 l 167 -50 q 207 -115 277 -115 q 325 -115 358 -81 q 392 -46 392 2 l 392 78 q 331 -11 237 -11 q 160 -11 102 52 q 45 116 45 203 q 45 290 101 352 q 157 414 234 414 q 333 414 392 318 z m 404 202 q 404 259 365 297 q 325 335 267 335 q 214 335 173 295 q 133 256 133 204 q 133 148 173 107 q 213 67 268 67 q 324 67 364 106 q 404 146 404 202 z"},"j":{"x_min":0,"x_max":219,"ha":219,"o":"m 42 534 q 42 561 62 581 q 81 600 108 600 q 135 600 154 581 q 174 561 174 534 q 174 507 154 488 q 135 468 108 468 q 81 468 62 488 q 42 507 42 534 z m 66 403 l 151 403 l 151 -189 l 66 -189 z"},"i":{"x_min":0,"x_max":219,"ha":219,"o":"m 41 535 q 41 562 61 581 q 80 600 107 600 q 133 600 153 581 q 172 562 172 535 q 172 508 153 489 q 133 470 107 470 q 80 470 61 489 q 41 508 41 535 z m 65 403 l 149 403 l 149 0 l 65 0 z"},"y":{"x_min":0,"x_max":500,"ha":500,"o":"m 31 403 l 127 403 l 273 184 l 374 403 l 462 403 l 190 -189 l 101 -189 l 234 99 z"},"@":{"x_min":0,"x_max":1015,"ha":1015,"o":"m 893 9 l 981 9 q 940 -74 830 -142 q 720 -210 550 -210 q 320 -210 188 -93 q 57 25 57 229 q 57 365 120 486 q 183 606 290 667 q 397 729 540 729 q 733 729 846 614 q 958 500 958 356 q 958 209 864 104 q 771 -2 667 -2 q 615 -2 594 17 q 573 37 570 80 q 498 -1 422 -1 q 345 -1 294 62 q 243 124 243 220 q 243 292 280 367 q 316 443 376 486 q 435 529 496 529 q 587 529 644 439 l 660 515 l 748 515 l 670 153 q 663 120 663 111 q 663 98 673 88 q 684 79 698 79 q 723 79 771 113 q 818 147 852 213 q 885 278 885 350 q 885 482 785 570 q 686 658 535 658 q 360 658 245 538 q 129 418 129 237 q 129 60 240 -39 q 352 -138 552 -138 q 676 -138 767 -93 q 858 -48 893 9 z m 501 457 q 438 457 385 382 q 333 306 333 212 q 333 149 363 110 q 393 71 441 71 q 479 71 522 105 q 565 140 591 198 q 616 257 616 315 q 616 380 585 418 q 553 457 501 457 z"},".":{"x_min":0,"x_max":219,"ha":219,"o":"m 42 57 q 42 84 61 104 q 81 123 108 123 q 135 123 154 104 q 174 84 174 57 q 174 30 155 10 q 135 -9 108 -9 q 81 -9 61 10 q 42 29 42 57 z"},"p":{"x_min":0,"x_max":552,"ha":552,"o":"m 152 403 l 152 322 l 152 322 q 213 414 308 414 q 386 414 443 352 q 499 290 499 203 q 499 116 442 52 q 385 -11 307 -11 q 262 -11 221 12 q 180 36 153 80 l 153 80 l 153 -189 l 68 -189 l 68 403 z m 410 203 q 410 256 370 296 q 330 336 276 336 q 221 336 180 296 q 140 257 140 203 q 140 148 180 107 q 220 67 274 67 q 330 67 370 107 q 410 147 410 203 z"},"X":{"x_min":0,"x_max":552,"ha":552,"o":"m 41 622 l 135 622 l 274 395 l 411 622 l 506 622 l 321 318 l 511 0 l 417 0 l 274 239 l 129 0 l 34 0 l 226 318 z"},"*":{"x_min":0,"x_max":438,"ha":438,"o":"m 229 528 l 244 520 q 271 539 293 566 q 315 593 328 601 q 341 609 356 609 q 373 609 385 597 q 396 586 396 569 q 396 547 380 537 q 365 527 323 520 q 281 513 255 500 l 254 484 q 289 468 328 462 q 366 456 381 446 q 396 435 396 413 q 396 396 384 385 q 372 373 355 373 q 332 373 298 413 q 261 457 243 465 l 229 458 q 230 433 244 395 q 258 357 258 341 q 258 321 247 308 q 236 296 218 296 q 200 296 188 309 q 177 321 177 340 q 177 355 191 394 q 206 434 206 458 l 193 465 q 168 445 137 409 q 107 372 82 372 q 66 372 54 384 q 42 396 42 412 q 42 453 115 465 q 158 472 181 485 l 182 500 q 156 512 115 519 q 73 526 58 538 q 42 550 42 569 q 42 586 53 599 q 64 611 80 611 q 95 611 107 603 q 118 596 142 568 q 166 541 193 521 l 206 529 q 205 554 191 592 q 177 630 177 645 q 177 663 188 675 q 200 687 217 687 q 235 687 246 675 q 258 664 258 645 q 258 630 244 591 q 230 553 229 528 z"},"Y":{"x_min":0,"x_max":552,"ha":552,"o":"m 28 622 l 122 622 l 275 372 l 426 622 l 520 622 l 316 285 l 316 0 l 231 0 l 231 284 z"},"c":{"x_min":0,"x_max":385,"ha":385,"o":"m 359 123 l 359 26 q 294 -11 233 -11 q 149 -11 87 52 q 24 114 24 197 q 24 291 86 352 q 149 414 243 414 q 299 414 359 385 l 359 290 q 295 331 238 331 q 185 331 146 294 q 106 257 106 207 q 106 151 143 113 q 180 74 234 74 q 289 74 359 123 z"},"!":{"x_min":0,"x_max":219,"ha":219,"o":"m 66 622 l 148 622 l 148 154 l 66 154 z m 56 44 q 56 65 72 81 q 87 97 109 97 q 131 97 146 81 q 162 65 162 44 q 162 22 146 7 q 131 -9 109 -9 q 87 -9 72 7 q 56 22 56 44 z"},"/":{"x_min":0,"x_max":500,"ha":500,"o":"m 433 725 l 489 725 l 84 -220 l 26 -220 z"},"[":{"x_min":0,"x_max":271,"ha":271,"o":"m 65 632 l 245 632 l 245 571 l 133 571 l 133 -97 l 245 -97 l 245 -158 l 65 -158 z"},"6":{"x_min":0,"x_max":552,"ha":552,"o":"m 312 656 l 377 611 l 240 411 q 257 413 264 413 l 282 414 q 369 414 435 352 q 501 290 501 209 q 501 113 436 46 q 370 -21 276 -21 q 182 -21 115 45 q 48 110 48 203 q 48 274 90 335 z m 412 206 q 412 263 371 304 q 331 345 275 345 q 219 345 178 303 q 136 262 136 206 q 136 148 177 109 q 217 69 275 69 q 332 69 372 109 q 412 149 412 206 z"},"r":{"x_min":0,"x_max":333,"ha":333,"o":"m 151 403 l 151 320 l 151 320 q 179 370 206 392 q 233 414 277 414 q 289 414 312 408 l 286 323 q 262 328 254 328 q 211 328 182 298 q 153 268 153 223 l 153 0 l 68 0 l 68 403 z"},"2":{"x_min":0,"x_max":552,"ha":552,"o":"m 241 83 l 478 83 l 478 0 l 53 0 l 370 337 q 406 376 406 423 q 406 478 368 519 q 331 559 280 559 q 238 559 201 532 q 164 505 153 449 l 71 449 q 83 541 143 592 q 204 643 285 643 q 367 643 427 579 q 488 515 488 427 q 488 384 472 349 q 457 313 418 272 z"},"{":{"x_min":0,"x_max":334,"ha":334,"o":"m 28 197 l 28 277 q 61 277 86 295 q 112 313 121 348 q 129 382 129 491 q 130 599 143 628 q 155 656 180 681 q 206 706 284 706 l 311 706 l 311 630 l 296 630 q 243 630 227 611 q 212 592 212 529 l 212 457 q 212 356 190 309 q 168 261 110 237 q 165 215 188 167 q 212 119 212 16 l 212 -55 q 212 -117 227 -136 q 242 -156 296 -156 l 311 -156 l 311 -232 l 284 -232 q 205 -232 179 -206 q 153 -180 142 -153 q 130 -125 129 -17 q 129 92 120 127 q 112 162 86 179 q 60 197 28 197 z"},"9":{"x_min":0,"x_max":552,"ha":552,"o":"m 240 -32 l 174 14 l 311 213 q 282 209 267 209 q 175 209 112 271 q 50 333 50 425 q 50 513 118 579 q 186 645 277 645 q 367 645 434 578 q 502 511 502 422 q 502 350 456 283 z m 414 416 q 414 474 374 515 q 333 556 277 556 q 217 556 177 515 q 137 475 137 414 q 137 358 180 319 q 222 279 282 279 q 337 279 376 319 q 414 358 414 416 z"}," ":{"x_min":0,"x_max":276,"ha":276,"o":""},"I":{"x_min":0,"x_max":219,"ha":219,"o":"m 64 622 l 148 622 l 148 0 l 64 0 z"},"H":{"x_min":0,"x_max":604,"ha":604,"o":"m 68 622 l 153 622 l 153 383 l 450 383 l 450 622 l 534 622 l 534 0 l 450 0 l 450 299 l 153 299 l 153 0 l 68 0 z"},"4":{"x_min":0,"x_max":552,"ha":552,"o":"m 437 641 l 437 195 l 497 195 l 497 122 l 437 122 l 437 0 l 361 0 l 361 122 l 12 122 z m 359 443 l 161 195 l 361 195 l 361 443 z"},"~":{"x_min":0,"x_max":656,"ha":656,"o":"m 592 413 l 592 342 q 518 280 453 280 q 418 280 388 291 q 358 302 299 331 q 239 359 206 359 q 144 359 64 292 l 64 362 q 141 423 207 423 q 236 423 266 413 q 296 402 358 373 q 419 344 451 344 q 515 344 592 413 z"},"D":{"x_min":0,"x_max":604,"ha":604,"o":"m 66 622 l 217 622 q 396 622 483 527 q 571 433 571 311 q 571 188 480 94 q 390 0 218 0 l 66 0 z m 151 539 l 151 84 l 156 84 q 250 84 298 93 q 346 101 389 130 q 432 159 458 206 q 483 254 483 311 q 483 383 442 441 q 402 499 345 519 q 289 539 194 539 z"},"^":{"x_min":0,"x_max":469,"ha":469,"o":"m 116 337 l 26 337 l 199 728 l 270 728 l 443 337 l 354 337 l 234 629 z"},"0":{"x_min":0,"x_max":552,"ha":552,"o":"m 279 643 q 381 643 446 551 q 510 459 510 312 q 510 160 441 69 q 372 -21 275 -21 q 174 -21 108 72 q 41 164 41 307 q 41 466 110 554 q 178 643 274 643 z m 421 313 q 421 418 379 486 q 338 554 275 554 q 210 554 169 487 q 128 420 128 310 q 128 201 169 135 q 211 69 277 69 q 340 69 381 136 q 421 204 421 313 z"},"F":{"x_min":0,"x_max":438,"ha":438,"o":"m 58 622 l 403 622 l 403 537 l 142 537 l 142 382 l 403 382 l 403 298 l 143 298 l 143 0 l 58 0 z"},"`":{"x_min":0,"x_max":333,"ha":333,"o":"m 227 477 l 156 477 l 43 613 l 161 613 z"},"k":{"x_min":0,"x_max":438,"ha":438,"o":"m 52 634 l 136 634 l 136 226 l 303 403 l 413 403 l 239 217 l 415 0 l 310 0 l 136 213 l 136 0 l 52 0 z"},"u":{"x_min":0,"x_max":438,"ha":438,"o":"m 42 403 l 127 403 l 127 176 q 127 71 219 71 q 260 71 284 99 q 308 127 308 176 l 308 403 l 392 403 l 392 162 q 392 86 343 38 q 293 -11 217 -11 q 139 -11 90 38 q 42 86 42 165 z"},"]":{"x_min":0,"x_max":271,"ha":271,"o":"m 16 632 l 197 632 l 197 -158 l 18 -158 l 18 -97 l 129 -97 l 129 571 l 16 571 z"},"U":{"x_min":0,"x_max":604,"ha":604,"o":"m 62 621 l 147 621 l 147 239 q 147 154 188 107 q 229 61 303 61 q 377 61 419 104 q 460 146 460 224 l 460 621 l 545 621 l 545 230 q 545 116 480 47 q 415 -21 306 -21 q 195 -21 129 48 q 62 118 62 253 z"},"o":{"x_min":0,"x_max":500,"ha":500,"o":"m 34 203 q 34 286 99 350 q 165 414 249 414 q 336 414 401 351 q 466 288 466 203 q 466 118 402 53 q 338 -11 255 -11 q 166 -11 100 53 q 34 117 34 203 z m 384 203 q 384 254 345 292 q 306 330 252 330 q 197 330 157 292 q 117 253 117 200 q 117 149 157 111 q 198 73 252 73 q 305 73 344 112 q 384 151 384 203 z"},"N":{"x_min":0,"x_max":667,"ha":667,"o":"m 60 647 l 520 174 l 520 622 l 605 622 l 605 -29 l 145 442 l 145 0 l 60 0 z"},"+":{"x_min":0,"x_max":667,"ha":667,"o":"m 67 355 l 300 355 l 300 589 l 364 589 l 364 355 l 599 355 l 599 291 l 364 291 l 364 59 l 300 59 l 300 291 l 67 291 z"},"G":{"x_min":0,"x_max":771,"ha":771,"o":"m 666 523 l 603 461 q 508 554 383 554 q 273 554 201 484 q 128 414 128 308 q 128 216 198 142 q 269 68 393 68 q 579 68 627 230 l 459 230 l 459 315 l 724 315 q 724 251 716 213 q 707 175 680 129 q 653 83 609 47 q 564 10 513 -5 q 462 -21 391 -21 q 230 -21 134 80 q 38 182 38 312 q 38 449 136 546 q 234 642 374 642 q 457 642 526 617 q 594 592 666 523 z"},"q":{"x_min":0,"x_max":552,"ha":552,"o":"m 394 320 l 394 403 l 478 403 l 478 -189 l 394 -189 l 394 79 l 394 79 q 331 -11 240 -11 q 162 -11 104 52 q 47 115 47 201 q 47 287 104 351 q 162 414 239 414 q 285 414 328 388 q 371 362 394 320 z m 405 203 q 405 257 364 296 q 324 335 267 335 q 214 335 175 295 q 136 255 136 200 q 136 146 176 107 q 216 67 271 67 q 327 67 366 106 q 405 146 405 203 z"},"d":{"x_min":0,"x_max":552,"ha":552,"o":"m 394 634 l 478 634 l 478 0 l 395 0 l 395 84 q 335 -11 238 -11 q 159 -11 103 52 q 47 115 47 203 q 47 290 104 352 q 161 414 240 414 q 288 414 329 388 q 370 361 394 319 z m 404 202 q 404 256 364 296 q 325 336 270 336 q 213 336 174 297 q 135 258 135 202 q 135 148 175 108 q 215 68 268 68 q 325 68 364 107 q 404 146 404 202 z"},"1":{"x_min":0,"x_max":552,"ha":552,"o":"m 158 620 l 320 620 l 320 0 l 236 0 l 236 538 l 130 538 z"},"5":{"x_min":0,"x_max":552,"ha":552,"o":"m 197 623 l 477 623 l 477 539 l 262 539 l 229 420 q 266 424 272 424 q 354 424 415 358 q 476 293 476 205 q 476 111 406 45 q 337 -20 237 -20 q 109 -20 31 91 l 107 139 q 163 69 240 69 q 304 69 345 109 q 387 148 387 209 q 387 268 344 308 q 301 348 238 348 q 200 348 172 335 q 145 321 111 292 z"}}}
